<svg id="Capa_1" data-name="Capa 1" xmlns="http://www.w3.org/2000/svg" viewBox="0 0 99.48 13.26"><defs><style>.cls-1{fill:#3498db;}</style></defs><path class="cls-1" d="M8.94,9.72a2.17,2.17,0,0,1-2.06,1.84H6L5.87,13a3.25,3.25,0,0,1-3.15,2.79A2.4,2.4,0,0,1,.28,13l.14-1.17h.79l.42-3.4A1.65,1.65,0,0,1,.81,6.8,2.18,2.18,0,0,1,2.88,5h6A1.62,1.62,0,0,1,10.52,6.8,2.17,2.17,0,0,1,8.71,8.63a1.73,1.73,0,0,1,.23,1.09ZM1.73,12.43H.94L.87,13a1.91,1.91,0,0,0,1.94,2.2A2.55,2.55,0,0,0,5.28,13l.25-2H7A1.48,1.48,0,0,0,8.36,9.72a1.11,1.11,0,0,0-1.1-1.26H5.84l.06-.41H8.54A1.48,1.48,0,0,0,10,6.79a1.1,1.1,0,0,0-1.1-1.25h-6A1.48,1.48,0,0,0,1.41,6.79,1.1,1.1,0,0,0,2.28,8l-.54,4.4Zm6.87-5H5.38L5.18,9h2a.59.59,0,0,1,.59.67.78.78,0,0,1-.75.67H5L4.7,13a1.89,1.89,0,0,1-1.82,1.62A1.4,1.4,0,0,1,1.46,13a.4.4,0,0,0,.41.47.53.53,0,0,0,.33-.13l.72-5.89H2.57A.58.58,0,0,1,2,6.79a.78.78,0,0,1,.75-.67h6a.58.58,0,0,1,.59.67A.78.78,0,0,1,8.6,7.46Z" transform="translate(-0.26 -3.37)"/><path class="cls-1" d="M14.81,14.87a2.37,2.37,0,0,1-1-.19,5.85,5.85,0,0,1-1.43.19c-2.71,0-4.53-1.8-4.3-3.73s2.5-3.73,5.21-3.73a6.06,6.06,0,0,1,1.21.13,2.73,2.73,0,0,1,.8-.13A2.1,2.1,0,0,1,17.44,9.8l-.13,1.1h.79L18,12.07a3.26,3.26,0,0,1-3.14,2.79Zm2.63-3.38h-.79l.2-1.69A1.59,1.59,0,0,0,15.25,8a2.09,2.09,0,0,0-.75.15A5.79,5.79,0,0,0,13.24,8C10.91,8,8.9,9.47,8.69,11.14s1.45,3.15,3.78,3.15A5.44,5.44,0,0,0,14,14.06a1.75,1.75,0,0,0,.92.23,2.56,2.56,0,0,0,2.48-2.21ZM15,13.7a1.45,1.45,0,0,1-.87-.27,4.93,4.93,0,0,1-1.54.27c-2,0-3.43-1.15-3.27-2.56s1.93-2.56,3.9-2.56a4.38,4.38,0,0,1,1.31.2,1.29,1.29,0,0,1,.69-.2A1.07,1.07,0,0,1,16.26,9.8l-.32,2.62a.42.42,0,0,0,.31.13.54.54,0,0,0,.52-.47A1.88,1.88,0,0,1,15,13.7ZM13.79,10a1.35,1.35,0,0,0-.48-.07,1.59,1.59,0,0,0-1.67,1.22c-.09.67.48,1.22,1.37,1.22a1.45,1.45,0,0,0,.49-.07l.28-2.3Z" transform="translate(-0.26 -3.37)"/><path class="cls-1" d="M27.81,14.87A2.43,2.43,0,0,1,25.9,14l-.38.62H17.05l.59-4.84A2.81,2.81,0,0,1,20.33,7.4,2.25,2.25,0,0,1,22,8.14a3.07,3.07,0,0,1,2-.74,2.42,2.42,0,0,1,1.91.86A3,3,0,0,1,28,7.4a2.4,2.4,0,0,1,2.45,2.79l-.08.71h.78L31,12.07a3.24,3.24,0,0,1-3.13,2.79Zm.07-.59a2.56,2.56,0,0,0,2.48-2.21l.08-.59h-.79l.15-1.29A1.91,1.91,0,0,0,27.87,8a2.6,2.6,0,0,0-2.15,1.28A1.89,1.89,0,0,0,23.87,8,2.63,2.63,0,0,0,21.8,9.13,1.59,1.59,0,0,0,20.25,8a2.12,2.12,0,0,0-2,1.8L17.7,14h3.52l.6-1-.12,1h3.52L26,12.8a1.87,1.87,0,0,0,1.89,1.48Zm1.37-1.74a.44.44,0,0,1-.31-.13l.27-2.22A1.38,1.38,0,0,0,27.8,8.58a1.93,1.93,0,0,0-1.61,1L25,11.6l.18-1.41A1.4,1.4,0,0,0,23.8,8.58a2,2,0,0,0-1.61,1L21,11.6l.22-1.81a1.07,1.07,0,0,0-1.08-1.21,1.42,1.42,0,0,0-1.37,1.21l-.45,3.66h2.57l1.8-2.94-.36,2.94h2.56l1.8-2.94-.2,1.56A1.41,1.41,0,0,0,28,13.69a1.88,1.88,0,0,0,1.81-1.62.53.53,0,0,1-.52.47Z" transform="translate(-0.26 -3.37)"/><path class="cls-1" d="M37.18,14.87a2.41,2.41,0,0,1-1-.19,5.85,5.85,0,0,1-1.43.19c-2.71,0-4.52-1.8-4.29-3.73S33,7.41,35.69,7.41a5.88,5.88,0,0,1,1.2.13,2.73,2.73,0,0,1,.8-.13A2.08,2.08,0,0,1,39.8,9.8l-.13,1.1h.79l-.15,1.17a3.25,3.25,0,0,1-3.13,2.79Zm2.62-3.38H39l.2-1.69A1.59,1.59,0,0,0,37.62,8a2.09,2.09,0,0,0-.75.15A5.79,5.79,0,0,0,35.61,8c-2.34,0-4.34,1.48-4.55,3.15s1.44,3.15,3.78,3.15a5.44,5.44,0,0,0,1.49-.23,1.75,1.75,0,0,0,.92.23,2.55,2.55,0,0,0,2.47-2.21ZM37.33,13.7a1.45,1.45,0,0,1-.87-.27,4.93,4.93,0,0,1-1.54.27c-2,0-3.44-1.15-3.27-2.56s1.93-2.56,3.9-2.56a4.42,4.42,0,0,1,1.31.2,1.27,1.27,0,0,1,.69-.2A1.07,1.07,0,0,1,38.63,9.8l-.32,2.62a.42.42,0,0,0,.31.13.52.52,0,0,0,.51-.47A1.87,1.87,0,0,1,37.33,13.7ZM36.16,10a1.41,1.41,0,0,0-.49-.07A1.57,1.57,0,0,0,34,11.14c-.09.67.48,1.22,1.37,1.22a1.45,1.45,0,0,0,.49-.07l.28-2.3Z" transform="translate(-0.26 -3.37)"/><path class="cls-1" d="M46.43,14.63H43.37a3.26,3.26,0,0,1-3.53-3.5,3.4,3.4,0,0,1,.74-1.72,2.82,2.82,0,0,1-.13-1.27,4,4,0,0,1,4-3.19h3.19a1.62,1.62,0,0,1,1.62,1.84,2.2,2.2,0,0,1-1.82,1.83,1.67,1.67,0,0,1,.23,1.09A2,2,0,0,1,47,10.94a1.61,1.61,0,0,1,1.49,1.84,2.17,2.17,0,0,1-2.06,1.84Zm.38-3.09H44.4a.25.25,0,0,1-.25-.28.35.35,0,0,1,.32-.28h1.19a1.48,1.48,0,0,0,1.41-1.26A1.11,1.11,0,0,0,46,8.46H45a.18.18,0,0,1-.19-.2.25.25,0,0,1,.25-.21h2.16a1.49,1.49,0,0,0,1.41-1.26,1.1,1.1,0,0,0-1.11-1.25H44.36a3.26,3.26,0,0,0-3.31,2.6,2.1,2.1,0,0,0,.23,1.3,3,3,0,0,0-.85,1.69,2.76,2.76,0,0,0,3,2.91h3.06a1.49,1.49,0,0,0,1.41-1.26,1.1,1.1,0,0,0-1.11-1.25Zm-.33-1.82a.8.8,0,0,1-.75.67H44.54a1,1,0,0,0-1,.87.75.75,0,0,0,.76.87h2.41a.59.59,0,0,1,.59.67.79.79,0,0,1-.75.66H43.52A2.25,2.25,0,0,1,41,11.14a2.47,2.47,0,0,1,1.06-1.65,1.6,1.6,0,0,1-.45-1.34,2.6,2.6,0,0,1,2.66-2h3.19a.59.59,0,0,1,.59.67.8.8,0,0,1-.75.67H45.16a.94.94,0,0,0-.9.8.69.69,0,0,0,.7.79h.94a.59.59,0,0,1,.59.66Z" transform="translate(-0.26 -3.37)"/><path class="cls-1" d="M58.45,14.87A2.43,2.43,0,0,1,56.54,14l-.38.62H47.69l.59-4.84A2.81,2.81,0,0,1,51,7.4a2.25,2.25,0,0,1,1.66.74,3.07,3.07,0,0,1,2-.74,2.42,2.42,0,0,1,1.91.86,3,3,0,0,1,2.09-.86A2.4,2.4,0,0,1,61,10.19L61,10.9h.78l-.15,1.17a3.24,3.24,0,0,1-3.13,2.79Zm.07-.59A2.56,2.56,0,0,0,61,12.07l.08-.59h-.79l.15-1.29A1.91,1.91,0,0,0,58.51,8a2.6,2.6,0,0,0-2.15,1.28A1.89,1.89,0,0,0,54.51,8a2.61,2.61,0,0,0-2.07,1.14A1.59,1.59,0,0,0,50.89,8a2.12,2.12,0,0,0-2,1.8L48.34,14h3.52l.6-1-.12,1h3.52l.76-1.24a1.87,1.87,0,0,0,1.89,1.48Zm1.37-1.74a.44.44,0,0,1-.31-.13l.27-2.22a1.38,1.38,0,0,0-1.42-1.61,1.93,1.93,0,0,0-1.6,1l-1.15,2,.18-1.41a1.4,1.4,0,0,0-1.42-1.61,2,2,0,0,0-1.61,1l-1.15,2,.22-1.81a1.07,1.07,0,0,0-1.08-1.21,1.42,1.42,0,0,0-1.37,1.21L49,13.45h2.57l1.8-2.94L53,13.45h2.56l1.8-2.94-.2,1.56a1.41,1.41,0,0,0,1.43,1.62,1.88,1.88,0,0,0,1.81-1.62.53.53,0,0,1-.52.47Z" transform="translate(-0.26 -3.37)"/><path class="cls-1" d="M65.25,16.63h-4.8l1.07-8.76C64,7.87,64.83,7.4,66,7.4c2.7,0,4.53,1.8,4.29,3.73S68,14.69,65.46,14.85l-.21,1.77ZM65.92,8c-1.16,0-2,.47-3.89.47L61.1,16h3.63l.21-1.76h.2c2.34,0,4.35-1.48,4.55-3.15S68.25,8,65.91,8Zm-4.16,7.47.79-6.41c1.35,0,2.13-.47,3.3-.47,2,0,3.43,1.15,3.26,2.56s-1.92,2.56-3.89,2.56a4.22,4.22,0,0,1-.79-.07l-.22,1.83Zm3.63-5.54a1.66,1.66,0,0,0-.51.07l-.28,2.3a1.51,1.51,0,0,0,.5.07,1.56,1.56,0,0,0,1.65-1.22c.09-.67-.47-1.22-1.36-1.22Z" transform="translate(-0.26 -3.37)"/><path class="cls-1" d="M72,14.87a2.42,2.42,0,0,1-2.46-2.79l.79-6.32a2.83,2.83,0,0,1,2.69-2.39,2.09,2.09,0,0,1,2.11,2.39l-.63,5.14h.79l-.15,1.17A3.24,3.24,0,0,1,72,14.86Zm2.54-9.11A1.59,1.59,0,0,0,73,4a2.11,2.11,0,0,0-2,1.8l-.79,6.32a1.92,1.92,0,0,0,1.94,2.21,2.56,2.56,0,0,0,2.47-2.21l.08-.59h-.78l.7-5.73ZM72.18,13.7a1.41,1.41,0,0,1-1.43-1.62l.79-6.32A1.41,1.41,0,0,1,72.9,4.54,1.08,1.08,0,0,1,74,5.76l-.82,6.66a.42.42,0,0,0,.31.13.54.54,0,0,0,.52-.47,1.88,1.88,0,0,1-1.81,1.62Z" transform="translate(-0.26 -3.37)"/><path class="cls-1" d="M79,14.87c-2.7,0-4.53-1.81-4.3-3.73S77.2,7.41,79.9,7.41c2,0,3.82,1.44,3.67,2.59A2.09,2.09,0,0,1,83,11.14a1.7,1.7,0,0,1,.26,1.14c-.13,1.13-2.3,2.59-4.31,2.59ZM83,10c.12-.95-1.51-2-3.16-2-2.34,0-4.34,1.48-4.55,3.15s1.44,3.15,3.78,3.15c1.67,0,3.54-1.07,3.65-2a1.12,1.12,0,0,0-.6-1.14A1.51,1.51,0,0,0,83,10Zm-1.46,1.61c-.55,0-.88.87-2.09.87a1.22,1.22,0,0,1-1.22-.67h1.42a.78.78,0,0,0,.75-.67.59.59,0,0,0-.59-.67H78.38a1.64,1.64,0,0,1,1.39-.67c1.21,0,1.3.87,1.88.87A.8.8,0,0,0,82.4,10c.09-.76-1.33-1.42-2.64-1.42-2,0-3.72,1.15-3.9,2.56s1.3,2.56,3.27,2.56c1.33,0,2.9-.67,3-1.42a.59.59,0,0,0-.59-.67Z" transform="translate(-0.26 -3.37)"/><path class="cls-1" d="M87.14,14.87c-2.71,0-4.53-1.8-4.29-3.73s2.5-3.73,5.2-3.73,4.54,1.8,4.3,3.73S89.85,14.87,87.14,14.87ZM88,8c-2.33,0-4.33,1.48-4.55,3.15s1.45,3.15,3.78,3.15,4.36-1.48,4.55-3.15S90.32,8,88,8Zm-.69,5.71c-2,0-3.43-1.15-3.27-2.56s1.92-2.56,3.89-2.56,3.44,1.15,3.26,2.56-1.91,2.56-3.88,2.56Zm.46-3.78a1.42,1.42,0,0,0-1.37,1.22,1.07,1.07,0,0,0,1.08,1.22,1.42,1.42,0,0,0,1.37-1.22A1.07,1.07,0,0,0,87.75,9.92Z" transform="translate(-0.26 -3.37)"/><path class="cls-1" d="M94.49,14a1.86,1.86,0,0,1-2.55.66,1.7,1.7,0,0,1-.4-2.51l2.14-3.08a5.37,5.37,0,0,1,.52-.67,2.84,2.84,0,0,1,4-.34l.87.73-.65.65L99,10a2.73,2.73,0,0,1-.14,3.93,2.8,2.8,0,0,1-4,.32l-.31-.31-.06.09Zm.44-.59.36.38a2.26,2.26,0,0,0,3.13-.27,2.19,2.19,0,0,0,.11-3.1l-1-.92.6-.62-.42-.36a2.27,2.27,0,0,0-3.15.27,4.14,4.14,0,0,0-.45.59L92,12.42a1.15,1.15,0,0,0,.24,1.69A1.32,1.32,0,0,0,94,13.68L95,12.33l.42.38-.45.68Zm3.17-2.55L96.48,9.33A.55.55,0,0,1,96.63,9a.49.49,0,0,1,.67-.06,1.66,1.66,0,0,0-2.31.2c-.14.15-.23.31-.38.5L92.48,12.7a.61.61,0,0,0,.14.89.69.69,0,0,0,.93-.22l1.36-1.95,1.61,1.52a.46.46,0,0,1-.14.31.48.48,0,0,1-.67.06,1.67,1.67,0,0,0,2.31-.2,1.58,1.58,0,0,0,.07-2.27Z" transform="translate(-0.26 -3.37)"/></svg>