<svg id="Capa_1" data-name="Capa 1" xmlns="http://www.w3.org/2000/svg" viewBox="0 0 99.48 13.39"><defs><style>.cls-1{fill:#3498db;}.cls-2{fill:#fff;}</style></defs><path class="cls-1" d="M8.94,9.44a2.17,2.17,0,0,1-2.06,1.84H6l-.17,1.46a3.25,3.25,0,0,1-3.15,2.79A2.4,2.4,0,0,1,.28,12.74l.14-1.17h.79l.42-3.4A1.65,1.65,0,0,1,.81,6.53,2.17,2.17,0,0,1,2.88,4.69h6a1.62,1.62,0,0,1,1.62,1.84A2.17,2.17,0,0,1,8.71,8.36a1.73,1.73,0,0,1,.23,1.09ZM1.73,12.15H.94l-.07.59A1.92,1.92,0,0,0,2.81,15a2.56,2.56,0,0,0,2.47-2.21l.25-2H7A1.48,1.48,0,0,0,8.36,9.44a1.1,1.1,0,0,0-1.1-1.25H5.84l.06-.41H8.54A1.48,1.48,0,0,0,10,6.52a1.11,1.11,0,0,0-1.1-1.26h-6A1.48,1.48,0,0,0,1.41,6.52a1.1,1.1,0,0,0,.87,1.23l-.54,4.4Zm6.87-5H5.38l-.2,1.58h2a.59.59,0,0,1,.59.67.79.79,0,0,1-.75.67H5L4.7,12.74a1.89,1.89,0,0,1-1.82,1.61,1.39,1.39,0,0,1-1.42-1.61.41.41,0,0,0,.41.47.53.53,0,0,0,.33-.13l.72-5.89H2.57A.58.58,0,0,1,2,6.52a.78.78,0,0,1,.75-.67h6a.58.58,0,0,1,.59.67A.79.79,0,0,1,8.6,7.19Z" transform="translate(-0.26 -3.1)"/><path class="cls-1" d="M14.81,14.59a2.37,2.37,0,0,1-1-.19,5.85,5.85,0,0,1-1.43.19c-2.71,0-4.53-1.8-4.3-3.73s2.5-3.73,5.21-3.73a6.06,6.06,0,0,1,1.21.13,2.73,2.73,0,0,1,.8-.13,2.1,2.1,0,0,1,2.11,2.39l-.13,1.11h.79L18,11.8a3.26,3.26,0,0,1-3.14,2.79Zm2.63-3.38h-.79l.2-1.69a1.58,1.58,0,0,0-1.6-1.8,2.09,2.09,0,0,0-.75.15,5.79,5.79,0,0,0-1.26-.15c-2.33,0-4.34,1.47-4.55,3.14S10.14,14,12.47,14A5.43,5.43,0,0,0,14,13.79a1.84,1.84,0,0,0,.92.22,2.56,2.56,0,0,0,2.48-2.21ZM15,13.42a1.45,1.45,0,0,1-.87-.27,4.66,4.66,0,0,1-1.54.27c-2,0-3.43-1.15-3.27-2.56s1.93-2.56,3.9-2.56a4.38,4.38,0,0,1,1.31.2,1.29,1.29,0,0,1,.69-.2,1.08,1.08,0,0,1,1.08,1.22l-.32,2.62a.42.42,0,0,0,.31.13.54.54,0,0,0,.52-.47A1.88,1.88,0,0,1,15,13.42ZM13.79,9.71a1.35,1.35,0,0,0-.48-.07,1.59,1.59,0,0,0-1.67,1.22c-.09.67.48,1.22,1.37,1.22A1.45,1.45,0,0,0,13.5,12l.28-2.3Z" transform="translate(-0.26 -3.1)"/><path class="cls-1" d="M27.81,14.59a2.43,2.43,0,0,1-1.91-.86l-.38.62H17.05l.59-4.83a2.81,2.81,0,0,1,2.69-2.39A2.21,2.21,0,0,1,22,7.87a3.07,3.07,0,0,1,2-.74A2.42,2.42,0,0,1,25.86,8,3,3,0,0,1,28,7.13,2.4,2.4,0,0,1,30.4,9.92l-.08.7h.78L31,11.79a3.24,3.24,0,0,1-3.13,2.79Zm.07-.59a2.55,2.55,0,0,0,2.48-2.2l.08-.59h-.79l.15-1.29a1.91,1.91,0,0,0-1.93-2.21A2.63,2.63,0,0,0,25.72,9a1.9,1.9,0,0,0-1.85-1.28A2.63,2.63,0,0,0,21.8,8.85a1.59,1.59,0,0,0-1.55-1.14,2.12,2.12,0,0,0-2,1.81l-.52,4.25h3.52l.6-1-.12,1h3.52L26,12.53A1.87,1.87,0,0,0,27.87,14Zm1.37-1.73a.44.44,0,0,1-.31-.13l.27-2.22A1.39,1.39,0,0,0,27.8,8.3a1.91,1.91,0,0,0-1.61,1l-1.15,2,.18-1.41A1.41,1.41,0,0,0,23.8,8.3a1.93,1.93,0,0,0-1.61,1l-1.15,2,.22-1.81A1.07,1.07,0,0,0,20.18,8.3a1.42,1.42,0,0,0-1.37,1.22l-.45,3.66h2.57l1.8-2.95-.36,2.95h2.56l1.8-2.95-.2,1.56A1.41,1.41,0,0,0,28,13.41a1.88,1.88,0,0,0,1.81-1.62.53.53,0,0,1-.52.47Z" transform="translate(-0.26 -3.1)"/><path class="cls-1" d="M37.18,14.59a2.41,2.41,0,0,1-1-.19,5.85,5.85,0,0,1-1.43.19c-2.71,0-4.52-1.8-4.29-3.73S33,7.13,35.69,7.13a5.88,5.88,0,0,1,1.2.13,2.73,2.73,0,0,1,.8-.13A2.08,2.08,0,0,1,39.8,9.52l-.13,1.11h.79l-.15,1.17a3.26,3.26,0,0,1-3.13,2.79Zm2.62-3.38H39l.2-1.69a1.59,1.59,0,0,0-1.6-1.8,2.09,2.09,0,0,0-.75.15,5.79,5.79,0,0,0-1.26-.15c-2.34,0-4.34,1.47-4.55,3.14S32.5,14,34.84,14a5.43,5.43,0,0,0,1.49-.22,1.84,1.84,0,0,0,.92.22,2.55,2.55,0,0,0,2.47-2.21Zm-2.47,2.21a1.45,1.45,0,0,1-.87-.27,4.66,4.66,0,0,1-1.54.27c-2,0-3.44-1.15-3.27-2.56s1.93-2.56,3.9-2.56a4.42,4.42,0,0,1,1.31.2,1.27,1.27,0,0,1,.69-.2,1.08,1.08,0,0,1,1.08,1.22l-.32,2.62a.42.42,0,0,0,.31.13.52.52,0,0,0,.51-.47A1.87,1.87,0,0,1,37.33,13.42ZM36.16,9.71a1.41,1.41,0,0,0-.49-.07A1.57,1.57,0,0,0,34,10.86c-.09.67.48,1.22,1.37,1.22a1.45,1.45,0,0,0,.49-.07l.28-2.3Z" transform="translate(-0.26 -3.1)"/><path class="cls-1" d="M46.43,14.35H43.37a3.26,3.26,0,0,1-3.53-3.49,3.47,3.47,0,0,1,.74-1.73,2.82,2.82,0,0,1-.13-1.27,4,4,0,0,1,4-3.19h3.19a1.62,1.62,0,0,1,1.62,1.84,2.2,2.2,0,0,1-1.82,1.83,1.67,1.67,0,0,1,.23,1.09A2,2,0,0,1,47,10.66a1.61,1.61,0,0,1,1.49,1.84,2.17,2.17,0,0,1-2.06,1.84Zm.38-3.09H44.4a.25.25,0,0,1-.25-.28.35.35,0,0,1,.32-.28h1.19a1.48,1.48,0,0,0,1.41-1.26A1.1,1.1,0,0,0,46,8.19H45a.18.18,0,0,1-.19-.2.25.25,0,0,1,.25-.21h2.16a1.49,1.49,0,0,0,1.41-1.26,1.11,1.11,0,0,0-1.11-1.26H44.36a3.27,3.27,0,0,0-3.31,2.61,2.12,2.12,0,0,0,.23,1.3,3,3,0,0,0-.85,1.69,2.76,2.76,0,0,0,3,2.91h3.06a1.49,1.49,0,0,0,1.41-1.26,1.11,1.11,0,0,0-1.11-1.26Zm-.33-1.82a.8.8,0,0,1-.75.67H44.54a1,1,0,0,0-1,.87.75.75,0,0,0,.76.87h2.41a.59.59,0,0,1,.59.67.8.8,0,0,1-.75.67H43.52A2.25,2.25,0,0,1,41,10.87a2.49,2.49,0,0,1,1.06-1.66,1.6,1.6,0,0,1-.45-1.34,2.6,2.6,0,0,1,2.66-2h3.19a.59.59,0,0,1,.59.67.8.8,0,0,1-.75.67H45.16a.94.94,0,0,0-.9.8.69.69,0,0,0,.7.79h.94a.59.59,0,0,1,.59.67Z" transform="translate(-0.26 -3.1)"/><path class="cls-1" d="M58.45,14.59a2.43,2.43,0,0,1-1.91-.86l-.38.62H47.69l.59-4.83A2.81,2.81,0,0,1,51,7.13a2.21,2.21,0,0,1,1.66.74,3.07,3.07,0,0,1,2-.74A2.42,2.42,0,0,1,56.5,8a3,3,0,0,1,2.09-.86A2.4,2.4,0,0,1,61,9.92l-.08.7h.78l-.15,1.17a3.24,3.24,0,0,1-3.13,2.79Zm.07-.59A2.55,2.55,0,0,0,61,11.8l.08-.59h-.79l.15-1.29a1.92,1.92,0,0,0-1.93-2.21A2.63,2.63,0,0,0,56.36,9a1.9,1.9,0,0,0-1.85-1.28,2.61,2.61,0,0,0-2.07,1.14,1.59,1.59,0,0,0-1.55-1.14,2.12,2.12,0,0,0-2,1.81l-.52,4.25h3.52l.6-1-.12,1h3.52l.76-1.24A1.87,1.87,0,0,0,58.51,14Zm1.37-1.73a.44.44,0,0,1-.31-.13l.27-2.22A1.39,1.39,0,0,0,58.43,8.3a1.91,1.91,0,0,0-1.6,1l-1.15,2,.18-1.41A1.41,1.41,0,0,0,54.44,8.3a1.93,1.93,0,0,0-1.61,1l-1.15,2,.22-1.81A1.07,1.07,0,0,0,50.82,8.3a1.42,1.42,0,0,0-1.37,1.22L49,13.18h2.57l1.8-2.95L53,13.18h2.56l1.8-2.95-.2,1.56a1.41,1.41,0,0,0,1.43,1.62,1.88,1.88,0,0,0,1.81-1.62.53.53,0,0,1-.52.47Z" transform="translate(-0.26 -3.1)"/><path class="cls-1" d="M65.25,16.35h-4.8L61.52,7.6c2.52,0,3.31-.47,4.47-.47,2.7,0,4.53,1.8,4.29,3.73S68,14.41,65.46,14.58l-.21,1.77Zm.67-8.63c-1.16,0-2,.47-3.89.47l-.93,7.57h3.63L64.94,14h.2c2.34,0,4.35-1.47,4.55-3.14s-1.44-3.15-3.78-3.15Zm-4.16,7.46.79-6.41c1.35,0,2.13-.47,3.3-.47,2,0,3.43,1.15,3.26,2.56s-1.92,2.56-3.89,2.56a4.22,4.22,0,0,1-.79-.07l-.22,1.83Zm3.63-5.54a1.66,1.66,0,0,0-.51.07L64.6,12a1.51,1.51,0,0,0,.5.07,1.56,1.56,0,0,0,1.65-1.22c.09-.67-.47-1.22-1.36-1.22Z" transform="translate(-0.26 -3.1)"/><path class="cls-1" d="M72,14.59a2.42,2.42,0,0,1-2.46-2.79l.79-6.31A2.83,2.83,0,0,1,73.05,3.1a2.09,2.09,0,0,1,2.11,2.39l-.63,5.14h.79l-.15,1.17A3.24,3.24,0,0,1,72,14.59Zm2.54-9.1A1.59,1.59,0,0,0,73,3.68a2.11,2.11,0,0,0-2,1.81l-.79,6.31A1.92,1.92,0,0,0,72.1,14a2.56,2.56,0,0,0,2.47-2.21l.08-.59h-.78l.7-5.72Zm-2.39,7.93a1.41,1.41,0,0,1-1.43-1.62l.79-6.31A1.41,1.41,0,0,1,72.9,4.27,1.08,1.08,0,0,1,74,5.49l-.82,6.65a.42.42,0,0,0,.31.13A.54.54,0,0,0,74,11.8a1.88,1.88,0,0,1-1.81,1.62Z" transform="translate(-0.26 -3.1)"/><path class="cls-1" d="M79,14.59c-2.7,0-4.53-1.81-4.3-3.73S77.2,7.13,79.9,7.13c2,0,3.82,1.44,3.67,2.59A2.09,2.09,0,0,1,83,10.86,1.7,1.7,0,0,1,83.29,12c-.13,1.13-2.3,2.59-4.31,2.59Zm4-4.87c.12-1-1.51-2-3.16-2-2.34,0-4.34,1.47-4.55,3.14S76.72,14,79.06,14c1.67,0,3.54-1.07,3.65-2a1.12,1.12,0,0,0-.6-1.14A1.51,1.51,0,0,0,83,9.72Zm-1.46,1.61c-.55,0-.88.87-2.09.87a1.22,1.22,0,0,1-1.22-.67h1.42a.78.78,0,0,0,.75-.67.59.59,0,0,0-.59-.67H78.38a1.64,1.64,0,0,1,1.39-.67c1.21,0,1.3.87,1.88.87a.79.79,0,0,0,.75-.67C82.49,9,81.07,8.3,79.76,8.3c-2,0-3.72,1.15-3.9,2.56s1.3,2.56,3.27,2.56c1.33,0,2.9-.67,3-1.42a.59.59,0,0,0-.59-.67Z" transform="translate(-0.26 -3.1)"/><path class="cls-1" d="M87.14,14.59c-2.71,0-4.53-1.8-4.29-3.73s2.5-3.73,5.2-3.73,4.54,1.8,4.3,3.73S89.85,14.59,87.14,14.59ZM88,7.72c-2.33,0-4.33,1.47-4.55,3.14S84.88,14,87.21,14s4.36-1.48,4.55-3.15S90.32,7.72,88,7.72Zm-.69,5.7c-2,0-3.43-1.15-3.27-2.56S85.94,8.3,87.91,8.3s3.44,1.15,3.26,2.56-1.91,2.56-3.88,2.56Zm.46-3.78a1.42,1.42,0,0,0-1.37,1.22,1.07,1.07,0,0,0,1.08,1.22,1.42,1.42,0,0,0,1.37-1.22A1.07,1.07,0,0,0,87.75,9.64Z" transform="translate(-0.26 -3.1)"/><path class="cls-1" d="M94.49,13.7a1.86,1.86,0,0,1-2.55.66,1.7,1.7,0,0,1-.4-2.51l2.14-3.08a6.22,6.22,0,0,1,.52-.67,2.85,2.85,0,0,1,4-.34l.87.73-.65.65.59.53a2.73,2.73,0,0,1-.14,3.93,2.8,2.8,0,0,1-4,.33l-.31-.32-.06.09Zm.44-.59.36.38a2.25,2.25,0,0,0,3.13-.27,2.19,2.19,0,0,0,.11-3.1l-1-.91.6-.62-.42-.37a2.29,2.29,0,0,0-3.15.27,4.14,4.14,0,0,0-.45.59L92,12.14a1.15,1.15,0,0,0,.24,1.69A1.32,1.32,0,0,0,94,13.4L95,12.05l.42.39-.45.68Zm3.17-2.54L96.48,9.05a.53.53,0,0,1,.15-.32.48.48,0,0,1,.67-.06,1.66,1.66,0,0,0-2.31.2,5.88,5.88,0,0,0-.38.5l-2.13,3.06a.62.62,0,0,0,.14.89.7.7,0,0,0,.93-.22l1.36-1.95,1.61,1.51a.51.51,0,0,1-.81.38,1.68,1.68,0,0,0,2.31-.2,1.6,1.6,0,0,0,.07-2.28Z" transform="translate(-0.26 -3.1)"/><path class="cls-1" d="M86,13.87,84.1,16.11a1.76,1.76,0,0,1-1.66.29l-.35-.1,2.45-2.87,1.48.44Z" transform="translate(-0.26 -3.1)"/><path class="cls-2" d="M84.3,13.09h.13a0,0,0,0,1,0,0v3.19a.13.13,0,0,1-.13.13h0a.13.13,0,0,1-.13-.13V13.22a.13.13,0,0,1,.13-.13Z" transform="translate(137.66 78.36) rotate(-138.72)"/></svg>