<?xml version="1.0" encoding="UTF-8"?>
<svg id="Capa_1" data-name="Capa 1" xmlns="http://www.w3.org/2000/svg" viewBox="0 0 200 60">
  <defs>
    <style>
      .cls-1 {
        fill: #3498db;
      }
    </style>
  </defs>
  <g>
    <path class="cls-1" d="M23.93,29.14c-.22,1.85-1.98,3.41-3.83,3.41h-1.54l-.33,2.7c-.35,2.87-2.96,5.17-5.83,5.17s-4.87-2.3-4.52-5.17l.26-2.17h1.46l.78-6.3c-1.04-.57-1.67-1.76-1.52-3.04.22-1.85,1.98-3.41,3.83-3.41h11.17c1.85,0,3.22,1.57,3,3.41-.2,1.7-1.7,3.15-3.37,3.39.35.57.52,1.26.43,2.02ZM10.56,34.16h-1.46l-.13,1.09c-.28,2.26,1.33,4.09,3.59,4.09s4.3-1.83,4.59-4.09l.46-3.78h2.63c1.26,0,2.46-1.07,2.61-2.33.15-1.26-.78-2.33-2.04-2.33h-2.63l.11-.76h4.89c1.26,0,2.46-1.07,2.61-2.33s-.78-2.33-2.04-2.33h-11.17c-1.26,0-2.46,1.07-2.61,2.33-.13,1.11.57,2.07,1.61,2.28l-1,8.15ZM23.3,24.96h-5.98l-.37,2.93h3.72c.67,0,1.17.57,1.09,1.24s-.72,1.24-1.39,1.24h-3.72l-.59,4.87c-.2,1.65-1.72,3-3.37,3s-2.85-1.35-2.63-3c-.07.48.28.87.76.87.22,0,.43-.09.61-.24l1.35-10.91h-.65c-.67,0-1.17-.57-1.09-1.24s.72-1.24,1.39-1.24h11.17c.67,0,1.17.57,1.09,1.24s-.72,1.24-1.39,1.24Z"/>
    <path class="cls-1" d="M34.8,38.68c-.65,0-1.26-.11-1.8-.35-.87.22-1.78.35-2.65.35-5.02,0-8.39-3.33-7.96-6.91.43-3.59,4.63-6.91,9.65-6.91.76,0,1.52.09,2.24.24.48-.15.98-.24,1.48-.24,2.43,0,4.2,2,3.91,4.43l-.24,2.04h1.46l-.28,2.17c-.35,2.85-2.96,5.17-5.8,5.17ZM39.67,32.42h-1.46l.37-3.13c.22-1.83-1.13-3.35-2.96-3.35-.48,0-.96.11-1.39.28-.74-.17-1.54-.28-2.33-.28-4.33,0-8.04,2.74-8.43,5.83s2.67,5.83,7,5.83c.91,0,1.87-.15,2.76-.41.48.28,1.07.41,1.7.41,2.26,0,4.33-1.83,4.59-4.09l.15-1.09ZM35.08,36.51c-.61,0-1.15-.17-1.61-.5-.87.31-1.89.5-2.85.5-3.65,0-6.37-2.13-6.06-4.74s3.57-4.74,7.22-4.74c.83,0,1.67.13,2.43.37.37-.24.83-.37,1.28-.37,1.24,0,2.15,1.04,2,2.26l-.59,4.85c.13.15.35.24.57.24.48,0,.91-.39.96-.87-.2,1.65-1.7,3-3.35,3ZM32.91,29.64c-.24-.09-.54-.13-.89-.13-1.65,0-2.93,1.02-3.09,2.26s.89,2.26,2.54,2.26c.35,0,.65-.04.91-.13l.52-4.26Z"/>
    <path class="cls-1" d="M58.89,38.68c-1.48,0-2.72-.61-3.54-1.59l-.7,1.15h-15.69l1.09-8.96c.28-2.41,2.57-4.43,4.98-4.43,1.24,0,2.33.54,3.07,1.37.87-.72,2.11-1.37,3.63-1.37s2.72.61,3.54,1.59c.89-.83,2.2-1.59,3.87-1.59,2.87,0,4.89,2.26,4.54,5.17l-.15,1.3h1.46l-.28,2.17c-.37,2.87-2.93,5.17-5.8,5.17ZM59.02,37.59c2.26,0,4.33-1.83,4.59-4.09l.15-1.09h-1.46l.28-2.39c.26-2.26-1.33-4.09-3.59-4.09-2.13,0-3.5,1.57-3.98,2.37-.48-1.41-1.78-2.37-3.43-2.37-1.91,0-3.24,1.28-3.83,2.11-.35-1.22-1.48-2.11-2.87-2.11-1.83,0-3.54,1.52-3.76,3.35l-.96,7.87h6.52l1.11-1.83-.22,1.83h6.52l1.41-2.3c.35,1.61,1.72,2.74,3.5,2.74ZM61.56,34.37c-.22,0-.43-.09-.57-.24l.5-4.11c.2-1.7-.98-3-2.63-3s-2.67,1.28-2.98,1.83l-2.13,3.78.33-2.61c.22-1.65-.98-3-2.63-3s-2.67,1.28-2.98,1.83l-2.13,3.78.41-3.35c.15-1.24-.76-2.26-2-2.26s-2.39,1.02-2.54,2.26l-.83,6.78h4.76l3.33-5.46-.67,5.46h4.76l3.33-5.46-.37,2.89c-.22,1.65,1,3,2.65,3s3.15-1.35,3.35-3c-.04.48-.48.87-.96.87Z"/>
    <path class="cls-1" d="M76.24,38.68c-.65,0-1.26-.11-1.8-.35-.87.22-1.78.35-2.65.35-5.02,0-8.39-3.33-7.96-6.91.43-3.59,4.63-6.91,9.65-6.91.76,0,1.52.09,2.24.24.48-.15.98-.24,1.48-.24,2.43,0,4.2,2,3.91,4.43l-.24,2.04h1.46l-.28,2.17c-.35,2.85-2.96,5.17-5.8,5.17ZM81.11,32.42h-1.46l.37-3.13c.22-1.83-1.13-3.35-2.96-3.35-.48,0-.96.11-1.39.28-.74-.17-1.54-.28-2.33-.28-4.33,0-8.04,2.74-8.43,5.83s2.67,5.83,7,5.83c.91,0,1.87-.15,2.76-.41.48.28,1.07.41,1.7.41,2.26,0,4.33-1.83,4.59-4.09l.15-1.09ZM76.52,36.51c-.61,0-1.15-.17-1.61-.5-.87.31-1.89.5-2.85.5-3.65,0-6.37-2.13-6.06-4.74s3.57-4.74,7.22-4.74c.83,0,1.67.13,2.43.37.37-.24.83-.37,1.28-.37,1.24,0,2.15,1.04,2,2.26l-.59,4.85c.13.15.35.24.57.24.48,0,.91-.39.96-.87-.2,1.65-1.7,3-3.35,3ZM74.35,29.64c-.24-.09-.54-.13-.89-.13-1.65,0-2.93,1.02-3.09,2.26s.89,2.26,2.54,2.26c.35,0,.65-.04.91-.13l.52-4.26Z"/>
    <path class="cls-1" d="M93.39,38.24h-5.67c-4.11,0-6.96-3.02-6.54-6.48.13-1.15.63-2.26,1.37-3.2-.26-.72-.33-1.52-.24-2.35.37-3.15,3.59-5.91,7.37-5.91h5.91c1.85,0,3.22,1.57,3,3.41-.2,1.7-1.7,3.15-3.37,3.39.35.57.52,1.26.43,2.02-.11.87-.54,1.67-1.2,2.28,1.74.13,2.98,1.65,2.76,3.41-.22,1.85-1.98,3.41-3.83,3.41ZM94.09,32.51h-4.46c-.28,0-.5-.24-.46-.52.04-.28.3-.52.59-.52h2.2c1.26,0,2.46-1.07,2.61-2.33.15-1.26-.78-2.33-2.04-2.33h-1.74c-.22,0-.37-.15-.35-.37s.24-.39.46-.39h4c1.26,0,2.46-1.07,2.61-2.33s-.78-2.33-2.04-2.33h-5.91c-3.13,0-5.85,2.22-6.15,4.83-.11.89.04,1.7.43,2.41-.85.89-1.43,1.98-1.57,3.13-.35,2.91,2.11,5.39,5.59,5.39h5.67c1.26,0,2.46-1.07,2.61-2.33.15-1.26-.78-2.33-2.04-2.33ZM93.48,29.14c-.09.67-.72,1.24-1.39,1.24h-2.2c-.89,0-1.7.72-1.8,1.61-.11.89.52,1.61,1.41,1.61h4.46c.67,0,1.17.57,1.09,1.24-.09.67-.72,1.24-1.39,1.24h-5.67c-2.83,0-4.91-1.93-4.63-4.3.15-1.2.89-2.28,1.96-3.07-.65-.67-.93-1.52-.83-2.48.24-2.07,2.46-3.74,4.93-3.74h5.91c.67,0,1.17.57,1.09,1.24s-.72,1.24-1.39,1.24h-4c-.8,0-1.57.67-1.67,1.48s.5,1.46,1.3,1.46h1.74c.67,0,1.17.57,1.09,1.24Z"/>
    <path class="cls-1" d="M115.66,38.68c-1.48,0-2.72-.61-3.54-1.59l-.7,1.15h-15.69l1.09-8.96c.28-2.41,2.57-4.43,4.98-4.43,1.24,0,2.33.54,3.07,1.37.87-.72,2.11-1.37,3.63-1.37s2.72.61,3.54,1.59c.89-.83,2.2-1.59,3.87-1.59,2.87,0,4.89,2.26,4.54,5.17l-.15,1.3h1.46l-.28,2.17c-.37,2.87-2.93,5.17-5.8,5.17ZM115.79,37.59c2.26,0,4.33-1.83,4.59-4.09l.15-1.09h-1.46l.28-2.39c.26-2.26-1.33-4.09-3.59-4.09-2.13,0-3.5,1.57-3.98,2.37-.48-1.41-1.78-2.37-3.43-2.37-1.91,0-3.24,1.28-3.83,2.11-.35-1.22-1.48-2.11-2.87-2.11-1.83,0-3.54,1.52-3.76,3.35l-.96,7.87h6.52l1.11-1.83-.22,1.83h6.52l1.41-2.3c.35,1.61,1.72,2.74,3.5,2.74ZM118.33,34.37c-.22,0-.43-.09-.57-.24l.5-4.11c.2-1.7-.98-3-2.63-3s-2.67,1.28-2.98,1.83l-2.13,3.78.33-2.61c.22-1.65-.98-3-2.63-3s-2.67,1.28-2.98,1.83l-2.13,3.78.41-3.35c.15-1.24-.76-2.26-2-2.26s-2.39,1.02-2.54,2.26l-.83,6.78h4.76l3.33-5.46-.67,5.46h4.76l3.33-5.46-.37,2.89c-.22,1.65,1,3,2.65,3s3.15-1.35,3.35-3c-.04.48-.48.87-.96.87Z"/>
    <path class="cls-1" d="M128.25,41.94h-8.89l1.98-16.22c4.67,0,6.13-.87,8.28-.87,5.02,0,8.41,3.33,7.96,6.91-.43,3.41-4.24,6.59-8.93,6.89l-.39,3.28ZM129.49,25.94c-2.15,0-3.61.87-7.2.87l-1.72,14.04h6.72l.39-3.26h.37c4.33,0,8.07-2.74,8.43-5.83.37-3.09-2.67-5.83-7-5.83ZM121.79,39.77l1.46-11.87c2.5,0,3.96-.87,6.11-.87,3.65,0,6.37,2.13,6.04,4.74-.33,2.61-3.54,4.74-7.2,4.74-.48,0-.98-.04-1.46-.13l-.41,3.39h-4.54ZM128.51,29.51c-.35,0-.65.04-.93.13l-.52,4.26c.26.09.56.13.91.13,1.65,0,2.91-1.02,3.07-2.26s-.87-2.26-2.52-2.26Z"/>
    <path class="cls-1" d="M140.81,38.68c-2.87,0-4.89-2.3-4.54-5.17l1.46-11.7c.31-2.41,2.57-4.43,4.98-4.43s4.22,2.02,3.91,4.43l-1.17,9.52h1.46l-.28,2.17c-.37,2.87-2.93,5.17-5.8,5.17ZM145.53,21.81c.22-1.83-1.15-3.35-2.98-3.35s-3.5,1.52-3.74,3.35l-1.46,11.7c-.28,2.26,1.33,4.09,3.59,4.09s4.33-1.83,4.59-4.09l.15-1.09h-1.46l1.3-10.61ZM141.1,36.51c-1.65,0-2.87-1.35-2.65-3l1.46-11.7c.15-1.24,1.28-2.26,2.52-2.26s2.17,1.02,2.02,2.26l-1.52,12.33c.13.15.35.24.57.24.48,0,.91-.39.96-.87-.2,1.65-1.7,3-3.35,3Z"/>
    <path class="cls-1" d="M153.71,38.68c-5,0-8.39-3.35-7.96-6.91s4.65-6.91,9.65-6.91c3.67,0,7.07,2.67,6.8,4.8-.09.78-.46,1.52-1,2.11.39.59.57,1.33.48,2.11-.24,2.09-4.26,4.8-7.98,4.8ZM161.12,29.66c.22-1.76-2.8-3.72-5.85-3.72-4.33,0-8.04,2.74-8.43,5.83s2.67,5.83,7,5.83c3.09,0,6.56-1.98,6.76-3.72.11-.87-.35-1.74-1.11-2.11.85-.37,1.52-1.22,1.63-2.11ZM158.42,32.64c-1.02,0-1.63,1.61-3.87,1.61-1.37,0-1.94-.63-2.26-1.24h2.63c.67,0,1.33-.57,1.39-1.24.07-.67-.41-1.24-1.09-1.24h-2.63c.48-.61,1.2-1.24,2.57-1.24,2.24,0,2.41,1.61,3.48,1.61.67,0,1.3-.57,1.39-1.24.17-1.41-2.46-2.63-4.89-2.63-3.65,0-6.89,2.13-7.22,4.74s2.41,4.74,6.06,4.74c2.46,0,5.37-1.24,5.52-2.63.06-.67-.41-1.24-1.09-1.24Z"/>
    <path class="cls-1" d="M168.82,38.68c-5.02,0-8.39-3.33-7.96-6.91.43-3.59,4.63-6.91,9.65-6.91s8.41,3.33,7.96,6.91c-.46,3.59-4.63,6.91-9.65,6.91ZM170.38,25.94c-4.33,0-8.04,2.74-8.43,5.83s2.67,5.83,7,5.83,8.07-2.74,8.43-5.83-2.67-5.83-7-5.83ZM169.1,36.51c-3.65,0-6.37-2.13-6.07-4.74s3.57-4.74,7.22-4.74,6.37,2.13,6.04,4.74-3.54,4.74-7.19,4.74ZM169.95,29.51c-1.24,0-2.39,1.02-2.54,2.26-.15,1.24.76,2.26,2,2.26s2.39-1.02,2.54-2.26-.76-2.26-2-2.26Z"/>
    <path class="cls-1" d="M182.43,37.03c-1.11,1.76-3.24,2.15-4.72,1.22-1.59-.85-1.87-3.02-.74-4.65l3.96-5.7c.35-.5.59-.85.96-1.24,2.07-2.17,5.37-2.48,7.35-.63l1.61,1.35-1.2,1.2,1.09.98c2.02,1.8,1.85,5.11-.26,7.28-2.09,2.15-5.46,2.59-7.37.61l-.56-.59-.11.17ZM183.25,35.94l.67.7c1.54,1.46,4.17,1.2,5.8-.5,1.65-1.72,1.74-4.28.2-5.74l-1.8-1.7,1.11-1.15-.78-.67c-1.57-1.46-4.17-1.22-5.83.5-.33.33-.52.65-.83,1.09l-3.96,5.67c-.76,1.09-.61,2.56.46,3.13,1.02.7,2.52.28,3.28-.8l1.74-2.5.78.72-.85,1.26ZM189.12,31.22l-3-2.8c.02-.22.11-.43.28-.61.35-.37.91-.41,1.24-.11-1.15-1.07-3.07-.89-4.28.37-.26.28-.43.57-.7.93l-3.96,5.67c-.39.57-.26,1.3.26,1.65s1.33.17,1.74-.41l2.52-3.61,2.98,2.8c0,.2-.09.41-.26.59-.35.37-.89.41-1.24.11,1.13,1.06,3.09.87,4.28-.37,1.22-1.26,1.28-3.15.13-4.22Z"/>
  </g>
  <path class="cls-1" d="M173.93,37.13h1.65v5.81h-.39c-.7,0-1.26-.56-1.26-1.26v-4.55h0Z" transform="translate(-1.27 74.04) rotate(-23.84)"/>
</svg>